<?xml version="1.0" standalone="no"?>
<!DOCTYPE svg PUBLIC "-//W3C//DTD SVG 20010904//EN"
        "http://www.w3.org/TR/2001/REC-SVG-20010904/DTD/svg10.dtd">
<svg version="1.0" xmlns="http://www.w3.org/2000/svg"
     width="1080.000000pt" height="1080.000000pt" viewBox="0 0 1080.000000 1080.000000"
     preserveAspectRatio="xMidYMid meet">

    <g transform="translate(0.000000,1080.000000) scale(0.100000,-0.100000)"
       fill="#d1ccc2" stroke="none">
        <path d="M6031 9691 c-19 -35 -100 -271 -140 -409 -128 -438 -133 -812 -15
-1212 122 -417 128 -453 128 -790 0 -219 -11 -328 -50 -508 -61 -275 -172
-526 -377 -854 l-92 -147 -14 192 c-14 185 -14 200 8 402 37 340 40 393 30
505 -12 140 -34 209 -127 397 -43 88 -88 192 -100 233 -12 41 -26 86 -30 99
-13 44 -29 33 -60 -41 -69 -168 -107 -417 -92 -597 16 -181 39 -259 160 -536
131 -300 170 -437 170 -588 -1 -118 -19 -182 -78 -270 -83 -121 -215 -346
-312 -526 -84 -156 -220 -448 -220 -471 0 -5 -4 -10 -9 -10 -9 0 -41 159 -61
295 -5 39 -17 180 -25 315 -9 135 -23 290 -31 345 -34 235 -103 405 -255 620
-50 72 -109 168 -131 215 -22 47 -45 96 -52 110 -6 14 -20 25 -31 25 -22 0
-24 -11 -45 -272 -31 -403 54 -716 307 -1118 199 -316 253 -433 271 -584 8
-68 6 -80 -30 -199 -98 -326 -145 -630 -155 -1015 l-6 -228 -47 128 c-106 290
-279 653 -390 819 -143 215 -244 314 -479 468 -69 46 -135 93 -145 105 -25 28
-44 27 -56 -3 -16 -43 59 -480 111 -640 40 -124 145 -332 223 -441 173 -240
430 -456 707 -595 46 -23 85 -44 87 -45 2 -2 12 -79 23 -172 10 -92 26 -211
35 -263 14 -86 72 -326 90 -375 4 -11 -17 12 -46 50 -71 93 -266 286 -365 362
-117 88 -271 187 -361 232 -235 117 -374 142 -374 67 0 -25 72 -160 137 -259
58 -88 205 -242 292 -307 157 -118 415 -237 616 -286 55 -13 110 -27 123 -30
25 -7 62 -71 94 -164 36 -106 165 -373 241 -502 25 -42 43 -79 40 -82 -3 -3 6
-21 21 -40 14 -19 26 -38 26 -41 0 -16 73 -105 81 -99 5 3 7 9 4 14 -3 5 5 10
17 12 37 5 32 33 -18 95 -141 173 -295 484 -418 843 -74 216 -110 352 -102
383 10 43 96 119 212 187 168 100 286 230 424 465 195 334 278 634 225 813
-23 75 -36 74 -148 -11 -335 -255 -626 -693 -722 -1090 -14 -56 -25 -114 -25
-129 0 -16 -4 -28 -8 -28 -8 0 -21 86 -44 290 -18 165 -15 636 6 825 20 191
34 239 87 299 72 82 110 104 449 269 165 81 308 165 419 247 97 72 251 217
290 275 15 22 56 81 92 130 35 50 86 133 113 185 27 52 62 114 78 138 59 86
17 100 -70 24 -132 -116 -277 -199 -553 -316 -247 -104 -375 -179 -492 -286
-67 -62 -220 -255 -272 -344 -15 -25 -28 -46 -30 -46 -11 0 92 300 147 430 63
147 218 450 311 605 46 77 173 280 282 450 221 344 308 498 379 667 84 200 95
219 175 298 90 89 134 116 351 215 374 172 576 366 810 780 34 61 77 135 96
167 39 64 45 108 15 108 -11 0 -23 -5 -26 -10 -10 -16 -320 -223 -465 -310
-116 -70 -304 -200 -375 -257 -125 -102 -239 -243 -375 -463 -34 -55 -63 -100
-64 -100 -2 0 3 30 10 68 39 209 43 593 10 847 -17 124 -15 136 50 338 109
341 121 653 40 1046 -37 179 -56 346 -56 498 0 126 -1 133 -20 133 -10 0 -24
-9 -29 -19z m-10 -541 c-7 -195 -16 -422 -21 -505 -5 -82 -10 -199 -11 -260
l-2 -110 -7 100 c-11 153 -11 705 0 835 12 144 43 342 48 315 2 -11 -1 -179
-7 -375z m-52 173 c-6 -43 -14 -246 -18 -458 l-6 -380 -9 190 c-4 105 -8 276
-8 380 -1 166 2 200 22 273 12 46 24 81 27 78 2 -2 -1 -39 -8 -83z m102 -313
c0 -107 -3 -220 -6 -250 -6 -54 -41 -356 -48 -415 -10 -75 -5 125 8 380 8 154
15 332 15 395 0 63 3 133 7 155 l7 40 8 -55 c5 -30 8 -143 9 -250z m-162 -165
c1 -158 17 -413 37 -603 9 -85 13 -156 10 -159 -3 -4 -6 1 -6 9 0 8 -11 109
-25 224 -35 301 -47 508 -38 654 7 120 8 122 14 60 4 -36 7 -119 8 -185z m198
-37 c-4 -141 -14 -249 -37 -398 -30 -197 -66 -389 -54 -290 3 25 12 113 19
195 8 83 21 202 30 265 8 63 18 174 21 245 6 136 10 175 21 175 3 0 3 -87 0
-192z m-227 -273 c6 -66 22 -209 36 -319 14 -109 23 -200 21 -203 -7 -6 -74
278 -88 372 -15 100 -17 351 -4 470 l9 90 8 -145 c4 -80 12 -199 18 -265z
m261 -54 c-13 -160 -43 -311 -95 -471 -39 -119 -39 -99 0 120 46 259 82 537
86 664 1 33 5 13 11 -59 7 -78 7 -152 -2 -254z m-174 -458 c-3 -10 -5 -2 -5
17 0 19 2 27 5 18 2 -10 2 -26 0 -35z m40 25 c-3 -8 -6 -5 -6 6 -1 11 2 17 5
13 3 -3 4 -12 1 -19z m1213 -271 c0 -2 -37 -35 -82 -73 -44 -38 -144 -123
-222 -189 -78 -66 -215 -181 -306 -255 -91 -74 -194 -161 -230 -194 -53 -49
-49 -44 20 28 104 107 514 475 621 556 63 49 186 130 197 130 1 0 2 -2 2 -3z
m-51 -89 c-31 -58 -253 -261 -424 -388 -273 -203 -279 -207 -386 -297 -54 -46
-99 -82 -99 -79 0 9 222 204 360 316 80 65 237 197 350 293 113 97 206 176
208 177 1 0 -3 -10 -9 -22z m-279 -112 c0 -2 -78 -73 -172 -157 -95 -85 -206
-185 -247 -224 -55 -51 -67 -59 -44 -30 52 67 242 247 351 333 96 77 112 88
112 78z m225 -33 c-55 -87 -110 -156 -163 -205 -98 -90 -327 -265 -477 -363
-279 -183 -323 -196 -63 -19 335 229 532 393 659 549 55 68 73 84 44 38z m-85
-53 c-119 -142 -314 -303 -600 -494 -134 -90 -163 -106 -125 -71 70 66 267
222 431 342 76 56 182 140 234 187 52 46 97 85 98 85 2 1 -15 -21 -38 -49z
m-1781 -150 c11 -63 41 -266 66 -450 25 -184 47 -348 49 -365 9 -55 -11 3 -58
175 -76 279 -87 344 -93 557 -3 106 -2 200 2 210 6 14 9 15 11 3 1 -8 12 -67
23 -130z m55 -12 c59 -133 66 -179 65 -443 l-1 -210 -33 235 c-35 246 -72 481
-82 515 -10 37 4 11 51 -97z m1245 -1 c-47 -45 -129 -136 -184 -202 -254 -308
-273 -330 -255 -296 56 108 213 322 297 402 51 50 211 179 222 179 2 0 -34
-37 -80 -83z m-1361 -70 c4 -147 24 -282 67 -442 69 -254 117 -447 113 -451
-7 -7 -115 306 -148 428 -44 165 -64 321 -56 446 6 85 12 132 20 132 0 0 2
-51 4 -113z m1662 -53 c-87 -88 -197 -170 -300 -223 -101 -52 -96 -46 32 42
53 37 148 107 210 157 62 49 115 90 118 90 2 0 -25 -30 -60 -66z m-1424 -181
c13 -80 15 -136 9 -303 -4 -113 -10 -245 -14 -295 -6 -87 -6 -88 -15 -45 -5
25 -10 194 -11 376 -2 182 -6 351 -9 375 -7 43 -6 44 9 17 8 -14 22 -70 31
-125z m-255 -110 c12 -64 53 -206 94 -330 40 -120 72 -219 70 -221 -1 -1 -33
68 -70 154 -86 202 -115 314 -120 464 -2 63 -1 99 1 80 3 -19 14 -86 25 -147z
m298 -263 c-6 -69 -14 -150 -19 -180 l-9 -55 5 55 c2 30 7 143 11 250 6 164 8
184 14 125 4 -38 3 -126 -2 -195z m-1070 -640 c22 -69 56 -181 74 -250 57
-206 199 -791 194 -796 -8 -8 -96 241 -153 435 -31 102 -87 309 -125 460 -39
150 -81 300 -94 332 -13 32 -26 73 -30 91 -3 18 -8 42 -11 53 -11 55 110 -217
145 -325z m961 305 c0 -5 -5 -3 -10 5 -5 8 -10 20 -10 25 0 6 5 3 10 -5 5 -8
10 -19 10 -25z m-1015 -375 c48 -194 110 -423 156 -575 41 -135 42 -141 35
-134 -5 5 -74 191 -157 428 -45 127 -138 504 -145 585 l-6 71 37 -100 c20 -55
56 -179 80 -275z m8 -271 c14 -41 50 -143 81 -228 31 -85 54 -156 53 -158 -5
-5 -154 334 -188 427 -53 147 -79 264 -78 359 l0 86 53 -206 c30 -114 65 -240
79 -280z m66 416 c50 -70 78 -150 111 -317 17 -84 52 -252 79 -373 50 -225 67
-314 58 -305 -3 3 -44 162 -92 353 -48 192 -110 425 -139 518 -29 93 -52 169
-51 169 1 0 16 -20 34 -45z m125 -192 c33 -67 82 -223 100 -323 19 -106 39
-305 34 -345 -3 -27 -72 269 -128 551 -12 56 -25 116 -30 133 -12 44 -4 38 24
-16z m-186 -378 c33 -77 90 -203 127 -280 104 -218 106 -231 16 -86 -140 224
-228 438 -255 621 -6 38 -2 32 22 -35 16 -44 56 -143 90 -220z m1672 -455
c-32 -26 -102 -71 -89 -57 9 10 114 86 119 86 3 0 -11 -13 -30 -29z m-65 -86
c-22 -20 -98 -72 -170 -117 -382 -238 -599 -404 -864 -662 l-145 -140 84 100
c101 121 287 308 390 391 128 104 317 227 505 329 99 53 191 106 205 116 41
30 38 21 -5 -17z m35 -14 c-12 -17 -46 -51 -76 -77 -85 -73 -400 -302 -614
-446 -107 -72 -231 -157 -275 -189 l-80 -59 85 81 c174 167 415 349 712 536
101 64 201 131 223 149 49 42 52 42 25 5z m-138 -10 c-18 -11 -68 -38 -112
-60 -112 -56 -231 -128 -338 -204 -51 -36 -91 -62 -88 -57 6 9 160 120 246
176 52 35 300 164 315 165 6 0 -5 -9 -23 -20z m99 -79 c-26 -36 -125 -128
-221 -204 -100 -80 -215 -156 -395 -262 -82 -49 -188 -113 -235 -143 -154 -98
-59 -26 166 126 239 161 543 381 639 461 33 27 61 50 63 50 2 1 -6 -12 -17
-28z m-406 -49 c-6 -5 -50 -36 -100 -70 -143 -97 -250 -187 -394 -330 -143
-142 -143 -137 1 25 139 157 305 294 428 352 68 32 80 37 65 23z m276 -120
c-5 -10 -45 -51 -88 -92 -65 -62 -96 -83 -182 -122 -57 -26 -102 -46 -100 -44
2 2 58 40 124 84 66 44 149 105 185 135 74 63 74 63 61 39z m-541 -5 c0 -2
-32 -30 -72 -62 -92 -77 -228 -229 -341 -380 -99 -134 -121 -159 -87 -100 134
229 304 425 449 516 44 29 51 32 51 26z m20 -80 c0 -2 -10 -12 -22 -23 l-23
-19 19 23 c18 21 26 27 26 19z m-50 -41 c0 -2 -8 -10 -17 -17 -16 -13 -17 -12
-4 4 13 16 21 21 21 13z m-1585 -366 c333 -584 442 -748 713 -1082 32 -38 24
-32 -27 22 -152 160 -250 292 -433 585 -69 110 -179 281 -244 380 -66 99 -133
214 -150 255 -32 76 -54 164 -36 145 5 -5 85 -143 177 -305z m-64 213 c98
-119 153 -206 309 -488 163 -296 289 -498 480 -770 l42 -60 -39 44 c-218 250
-364 468 -656 978 -206 360 -219 383 -213 383 2 0 37 -39 77 -87z m1889 -12
c-102 -66 -320 -188 -320 -178 0 17 387 247 415 247 6 0 -37 -31 -95 -69z
m-1784 -24 c55 -46 114 -139 231 -362 112 -214 227 -413 340 -588 34 -53 77
-125 94 -160 18 -34 49 -90 70 -124 21 -35 36 -63 34 -63 -6 0 -145 197 -232
329 -113 171 -201 319 -325 544 -117 213 -191 334 -266 431 -46 59 -46 59 -13
40 18 -10 48 -32 67 -47z m1734 48 c0 -2 -10 -9 -22 -15 -22 -11 -22 -10 -4 4
21 17 26 19 26 11z m-55 -34 c-14 -11 -365 -236 -392 -250 -43 -22 -23 -2 40
41 65 44 349 218 357 218 2 0 0 -4 -5 -9z m-1722 -308 c41 -60 145 -219 230
-355 170 -270 258 -394 369 -519 139 -155 151 -174 49 -74 -56 55 -163 179
-239 275 -75 96 -195 249 -268 340 -200 251 -245 330 -275 478 -10 52 -19 97
-19 100 0 4 18 -26 40 -65 21 -40 73 -121 113 -180z m282 42 c103 -156 171
-280 395 -720 150 -295 190 -389 71 -167 -33 62 -91 161 -129 220 -140 218
-262 431 -367 642 -32 63 -71 134 -86 157 -16 23 -29 45 -29 49 0 21 62 -56
145 -181z m88 -62 c41 -54 96 -131 122 -171 83 -129 245 -477 300 -647 7 -21
-92 164 -265 498 -56 109 -133 247 -171 307 -37 61 -66 110 -64 110 1 0 36
-44 78 -97z m-418 -94 c21 -34 74 -107 118 -163 45 -55 155 -195 245 -311 212
-274 344 -417 487 -531 35 -28 -8 -2 -70 41 -56 40 -421 415 -552 568 -90 106
-179 234 -222 322 -36 72 -58 135 -48 135 2 0 21 -28 42 -61z m138 -314 c74
-97 171 -206 427 -477 69 -73 118 -128 110 -122 -292 211 -484 423 -610 674
-27 55 -22 50 73 -75z m1767 8 c-40 -146 -187 -469 -289 -633 -79 -128 -272
-394 -369 -509 -23 -28 4 21 95 172 47 78 137 232 201 342 63 110 156 268 206
350 82 138 155 289 156 324 0 8 3 11 6 8 4 -4 1 -28 -6 -54z m-56 35 c-43 -73
-154 -247 -220 -343 -121 -179 -227 -358 -336 -570 -54 -104 -98 -187 -98
-183 0 17 146 371 200 485 117 244 242 429 380 556 72 67 88 78 74 55z m16
-48 c-30 -76 -61 -133 -154 -289 -47 -78 -156 -264 -243 -414 -149 -260 -295
-501 -315 -522 -14 -15 47 125 122 280 97 199 206 386 377 646 81 125 165 254
185 288 20 33 40 61 42 61 3 0 -3 -23 -14 -50z m25 -177 c-103 -308 -281 -607
-488 -818 l-89 -90 80 105 c138 182 267 383 345 537 78 154 156 342 179 428
l13 50 3 -37 c2 -25 -13 -85 -43 -175z m20 -66 c-93 -326 -350 -730 -542 -854
-29 -18 -55 -33 -59 -33 -4 0 37 46 92 103 117 119 168 184 271 345 94 146
178 316 223 450 42 124 52 117 15 -11z m-389 -44 c-108 -168 -225 -424 -357
-778 -53 -144 -62 -135 -28 28 34 170 109 348 226 542 52 86 188 275 198 275
3 0 -15 -30 -39 -67z m-615 -335 c16 -29 2 -21 -22 15 -17 23 -18 28 -6 18 10
-8 23 -23 28 -33z m-696 -332 c257 -107 579 -347 758 -565 96 -117 98 -121 16
-45 -102 96 -412 360 -474 405 -53 38 -229 149 -305 191 -25 14 -70 34 -100
43 -30 10 -59 21 -65 26 -14 14 69 -13 170 -55z m-103 5 c83 -31 351 -193 446
-269 92 -75 415 -357 437 -383 36 -41 -248 166 -464 339 -96 77 -370 264 -467
319 -52 29 -44 28 48 -6z m438 -356 c85 -66 200 -154 255 -194 111 -81 132
-100 95 -81 -96 50 -210 132 -520 376 -91 72 -186 145 -212 163 -27 17 -48 34
-48 37 0 11 290 -191 430 -301z m-99 19 c246 -194 287 -224 432 -308 53 -31
97 -59 97 -62 0 -12 -131 65 -285 166 -223 147 -414 291 -511 385 l-79 76 61
-40 c34 -22 162 -120 285 -217z m-66 -14 c72 -54 200 -143 285 -200 177 -117
184 -122 113 -86 -251 126 -502 311 -625 459 l-43 52 70 -64 c39 -35 129 -107
200 -161z m21 -82 c116 -83 253 -164 394 -235 69 -35 122 -63 118 -63 -13 0
-186 69 -259 104 -122 57 -257 152 -357 250 -119 116 -163 176 -56 76 45 -41
116 -100 160 -132z"/>
    </g>
</svg>
